<?xml version="1.0" encoding="UTF-8" standalone="no"?> <svg xmlns="http://www.w3.org/2000/svg" xmlns:xlink="http://www.w3.org/1999/xlink" viewBox="0 0 64 64"><defs><style>.cls-1{fill:url(#linear-gradient);}</style><linearGradient id="linear-gradient" x1="2.1" y1="32.01" x2="62" y2="32.01" gradientUnits="userSpaceOnUse"><stop offset="0" stop-color="#17a6d7"/><stop offset="1" stop-color="#9d31fe"/></linearGradient></defs><g id="Layer_54" data-name="Layer 54"><path class="cls-1" d="M61.41,19.82,49.91,8.31a2,2,0,0,0-3.16.46,1.86,1.86,0,0,0-.25,1v9.5h-26c-24.57,1-24.56,36,0,37H30.66a2,2,0,0,0,0-4H20.52c-19.26-.79-19.26-28.25,0-29h26v9.5a2,2,0,0,0,3.41,1.42l11.5-11.51A2,2,0,0,0,61.41,19.82ZM50.5,27.9V14.55l6.67,6.68Z"/></g></svg>