<?xml version="1.0" encoding="UTF-8" standalone="no"?> <svg id="Capa_1" enable-background="new 0 0 512 512" height="512" viewBox="0 0 512 512" width="512" xmlns="http://www.w3.org/2000/svg"><g><path d="m336 512h-280c-8.284 0-15-6.716-15-15v-361c0-8.284 6.716-15 15-15h400c8.284 0 15 6.716 15 15v241c0 3.979-1.581 7.794-4.394 10.606l-120 120c-2.813 2.814-6.627 4.394-10.606 4.394z" fill="#ffe278"/><path d="m466.606 387.606c2.813-2.812 4.394-6.627 4.394-10.606v-241c0-8.284-6.716-15-15-15h-200v391h80c3.979 0 7.793-1.58 10.606-4.394z" fill="#ffd845"/><path d="m456 0h-400c-8.284 0-15 6.716-15 15v121h430v-121c0-8.284-6.716-15-15-15z" fill="#fffbf4"/><path d="m471 136v-121c0-8.284-6.716-15-15-15h-200v136z" fill="#f9f4c8"/><path d="m466.606 387.606c2.813-2.812 4.394-6.627 4.394-10.606h-120c-8.284 0-15 6.716-15 15v120c3.979 0 7.793-1.58 10.606-4.394z" fill="#ffcb00"/><g fill="#556e82"><path d="m396 212h-280c-8.284 0-15-6.716-15-15s6.716-15 15-15h280c8.284 0 15 6.716 15 15s-6.716 15-15 15z"/><path d="m396 272h-280c-8.284 0-15-6.716-15-15s6.716-15 15-15h280c8.284 0 15 6.716 15 15s-6.716 15-15 15z"/><path d="m396 332h-280c-8.284 0-15-6.716-15-15s6.716-15 15-15h280c8.284 0 15 6.716 15 15s-6.716 15-15 15z"/><path d="m276 392h-160c-8.284 0-15-6.716-15-15s6.716-15 15-15h160c8.284 0 15 6.716 15 15s-6.716 15-15 15z"/><path d="m276 452h-160c-8.284 0-15-6.716-15-15s6.716-15 15-15h160c8.284 0 15 6.716 15 15s-6.716 15-15 15z"/></g><path d="m146 91h-30c-8.284 0-15-6.716-15-15s6.716-15 15-15h30c8.284 0 15 6.716 15 15s-6.716 15-15 15z" fill="#f9f4c8"/><path d="m396 91h-30c-8.284 0-15-6.716-15-15s6.716-15 15-15h30c8.284 0 15 6.716 15 15s-6.716 15-15 15z" fill="#ffe79b"/><path d="m396 182h-140v30h140c8.284 0 15-6.716 15-15s-6.716-15-15-15z" fill="#3c4655"/><path d="m396 242h-140v30h140c8.284 0 15-6.716 15-15s-6.716-15-15-15z" fill="#3c4655"/><path d="m396 302h-140v30h140c8.284 0 15-6.716 15-15s-6.716-15-15-15z" fill="#3c4655"/><path d="m276 362h-20v30h20c8.284 0 15-6.716 15-15s-6.716-15-15-15z" fill="#3c4655"/><path d="m276 422h-20v30h20c8.284 0 15-6.716 15-15s-6.716-15-15-15z" fill="#3c4655"/></g></svg>