<?xml version="1.0" encoding="UTF-8" standalone="no"?> <svg xmlns="http://www.w3.org/2000/svg" xmlns:xlink="http://www.w3.org/1999/xlink" viewBox="0 0 64 64"><defs><style>.cls-1{fill:url(#linear-gradient);}</style><linearGradient id="linear-gradient" x1="2" y1="32" x2="61.9" y2="32" gradientUnits="userSpaceOnUse"><stop offset="0" stop-color="#17a6d7"/><stop offset="1" stop-color="#9d31fe"/></linearGradient></defs><g id="Layer_53" data-name="Layer 53"><path class="cls-1" d="M43.48,19.23h-26V9.73a2,2,0,0,0-3.41-1.42L2.59,19.82a2,2,0,0,0,0,2.82l11.5,11.51a2,2,0,0,0,3.41-1.42v-9.5h26c19.26.8,19.26,28.25,0,29H33.34a2,2,0,0,0,0,4H43.48C68.05,55.26,68,20.24,43.48,19.23Zm-30-4.68V27.9L6.83,21.23Z"/></g></svg>