<?xml version="1.0" encoding="UTF-8" standalone="no"?> <svg id="Layer_2" data-name="Layer 2" xmlns="http://www.w3.org/2000/svg" xmlns:xlink="http://www.w3.org/1999/xlink" viewBox="0 0 64 64"><defs><style>.cls-1{fill:url(#linear-gradient);}.cls-2{fill:url(#linear-gradient-2);}</style><linearGradient id="linear-gradient" x1="3.07" y1="25.44" x2="60.92" y2="25.44" gradientUnits="userSpaceOnUse"><stop offset="0" stop-color="#17a6d7"/><stop offset="1" stop-color="#9d31fe"/></linearGradient><linearGradient id="linear-gradient-2" x1="22.29" y1="46" x2="41.7" y2="46" xlink:href="#linear-gradient"/></defs><path class="cls-1" d="M47.6,16.37h0c-3-17.74-28.22-17.71-31.2,0C-2.76,19.88-.66,47.21,18.8,47.8a1,1,0,0,0,0-2A13.81,13.81,0,0,1,5,32C4.84,21.85,16.08,15,25,19.69a1,1,0,0,0,1.35-.43c1.1-2.16-6.55-3.25-7.94-3.05,3-14.86,24.12-14.86,27.1,0-1.43-.21-9,.88-7.95,3.05a1,1,0,0,0,1.35.43C47.87,14.94,59.13,21.9,59,32A13.81,13.81,0,0,1,45.2,45.8a1,1,0,0,0,0,2C64.7,47.18,66.69,20,47.6,16.37Z"/><path class="cls-2" d="M32.71,31.29a1,1,0,0,0-1.42,0L22.59,40A1,1,0,0,0,24,41.4l7-7V60a1,1,0,0,0,2,0V34.41l7,7a1,1,0,0,0,1.42,0,1,1,0,0,0,0-1.41Z"/></svg>